PathFileType	3	(X/Y/Z)	D:\minhoCalibration\240510\subject1_KPNP\preferred\preferred01.trc
DataRate	CameraRate	NumFrames	NumMarkers	Units	OrigDataRate	OrigDataStartFrame	OrigNumFrames
200.0	200.0	24	10	mm	200.0	432	227	
Frame#	Time	Left_Ankle_Outer1			Left_Ankle_Inner1			Left_Knee_Outer1			Left_Knee_Inner1			Left_Wrist1			Right_Wrist1			Right_Knee_Inner1			Right_Knee_Outer1			Right_Ankle_Inner1			Right_Ankle_Outer1			
		X1	Y1	Z1	X2	Y2	Z2	X3	Y3	Z3	X4	Y4	Z4	X5	Y5	Z5	X6	Y6	Z6	X7	Y7	Z7	X8	Y8	Z8	X9	Y9	Z9	X10	Y10	Z10	
432	2.15	-484.80179	155.83038	-528.64807	-525.92596	163.04727	-489.41403	-331.67426	562.42938	-381.79193	-431.35516	541.65344	-340.03546	-375.39594	993.75537	-599.50891	-622.17944	1164.9679	-386.71408	-288.4325	1013.4147	-79.660675	-368.60965	1092.1146	-47.542194	-432.81772	821.34454	303.48816	-496.17737	885.40204	332.21234
433	2.155	-485.1572	156.14166	-528.39099	-526.27094	163.25325	-489.1525	-332.06161	562.38007	-380.88434	-431.49088	541.79602	-339.49701	-373.78021	994.55304	-596.77252	-624.43298	1162.3438	-386.03003	-290.54593	1007.6642	-78.210228	-369.72165	1086.3782	-45.00808	-442.11118	804.1095	295.05499	-506.23459	867.91016	325.10065
434	2.16	-485.68484	156.04074	-527.88281	-526.60638	163.27887	-488.81296	-332.4231	562.2688	-380.32733	-431.84808	541.82111	-338.76654	-371.75027	996.10455	-593.87964	-626.51678	1159.6471	-385.44031	-292.8511	1001.8327	-76.751663	-371.93866	1080.2562	-42.800182	-452.26636	786.78766	286.2916	-516.23004	850.21619	317.64569
435	2.165	-485.94519	156.01854	-527.88672	-527.00537	163.32185	-488.7626	-332.31308	562.3714	-380.15982	-431.94516	541.65149	-338.43533	-370.79785	996.57684	-590.69977	-628.53943	1156.9392	-384.90991	-295.3342	995.79889	-75.499901	-374.69385	1073.5787	-41.014568	-461.70096	769.43011	276.75742	-526.29065	832.33875	309.75797
436	2.17	-486.30286	155.89388	-527.96948	-527.25995	163.20564	-488.90408	-332.59613	562.17493	-380.08994	-432.38409	541.13312	-338.33957	-369.12131	997.41217	-587.99689	-630.42334	1154.2876	-384.38425	-298.16772	989.34918	-74.324249	-378.20535	1066.5256	-39.171345	-472.60986	751.58844	267.78397	-536.23352	814.13116	301.51639
437	2.175	-486.60019	155.66629	-528.22882	-527.85736	162.86339	-489.24759	-332.91534	561.90454	-380.26706	-432.2002	540.67908	-338.8804	-367.36581	998.30505	-585.36371	-632.35095	1151.5746	-383.77353	-301.49002	982.74615	-73.35791	-382.16891	1059.0597	-37.308868	-481.353	734.56763	257.37088	-546.05768	795.60492	292.67291
438	2.18	-486.89868	155.24658	-528.70654	-528.28064	162.37946	-489.81808	-333.21179	561.52484	-380.64215	-432.65005	540.45892	-339.00491	-365.56818	999.06653	-582.87305	-634.20673	1148.9681	-383.19296	-305.05078	975.96851	-72.559685	-386.61063	1051.2388	-35.347336	-491.80194	716.79047	247.65053	-555.81232	776.71436	283.4548
439	2.185	-487.04974	154.84825	-529.60333	-528.55353	161.92387	-490.40622	-333.48788	561.06445	-381.16263	-433.14597	539.72418	-339.7677	-363.66107	999.68561	-580.80011	-636.05493	1146.6625	-382.57883	-308.9967	969.24042	-71.943146	-391.5275	1043.106	-33.365681	-499.96722	699.22443	236.57318	-565.21735	757.41876	273.65762
440	2.19	-487.35458	154.07669	-530.30219	-529.0401	161.28323	-491.18463	-333.78546	560.49445	-381.85492	-433.36707	539.05878	-340.77435	-362.22519	1000.3909	-578.27887	-637.63129	1144.1808	-381.95947	-313.2406	962.49811	-71.447746	-397.00931	1034.6024	-31.433098	-508.50742	680.89148	225.27322	-574.51984	737.96637	263.38483
441	2.195	-487.64529	153.33998	-531.08215	-529.41876	160.49347	-492.16263	-333.93338	559.7926	-382.71481	-433.96188	538.26941	-342.14603	-360.84012	1000.9762	-575.99957	-639.23047	1141.8737	-381.4762	-317.27264	955.73889	-71.182968	-402.95996	1025.7698	-29.612446	-516.38483	662.98846	213.56577	-583.64197	718.2373	252.50095
442	2.2	-488.00168	152.41255	-531.95679	-529.74359	159.85596	-493.17981	-334.18552	558.92572	-383.6254	-434.48807	537.40143	-343.35376	-359.66113	1001.3835	-573.90155	-640.71106	1139.4196	-381.00562	-322.215	948.54181	-70.103783	-409.41403	1016.4512	-27.763071	-524.40338	644.94653	202.16875	-592.51294	698.37354	241.02625
443	2.205	-488.26776	151.34998	-532.93237	-530.18518	158.76419	-494.19467	-334.34125	557.96759	-384.67642	-435.08081	536.36115	-344.68207	-358.52179	1001.7155	-572.00214	-642.33807	1136.9745	-380.41083	-327.31601	940.9303	-68.691353	-416.17902	1006.8532	-25.994719	-532.63965	626.20093	190.13229	-601.14764	678.20978	229.12897
444	2.21	-488.58777	150.35265	-533.95813	-530.60736	157.77676	-495.37289	-334.49658	556.91656	-385.8598	-435.54913	535.28503	-346.0444	-357.47455	1001.9406	-570.28021	-643.21942	1134.3333	-380.56345	-332.50446	932.86261	-67.075745	-423.37106	996.80542	-24.133368	-538.97925	609.14368	177.04449	-609.69598	658.21985	216.35661
445	2.215	-488.94809	149.23015	-534.93732	-531.09796	156.70892	-496.52036	-334.60275	555.79681	-387.04065	-436.10764	534.17133	-347.37411	-356.55383	1002.0406	-568.68829	-644.03198	1131.6133	-380.82809	-337.81778	924.43085	-65.225601	-430.63303	986.32074	-22.428959	-545.99585	590.30463	164.09206	-617.89258	638.32916	203.32248
446	2.22	-489.36407	148.14293	-535.94049	-531.35321	155.36444	-497.19055	-334.59735	554.58264	-388.32327	-436.31387	533.0058	-348.89908	-355.70398	1002.0863	-567.16901	-645.00494	1128.7549	-381.09912	-343.5343	915.52753	-63.132099	-437.87247	975.2381	-20.901653	-552.20203	572.96136	150.79456	-625.91846	618.46686	189.75523
447	2.225	-489.93164	147.02986	-536.83191	-531.94476	154.36331	-498.13403	-334.52777	553.46399	-389.61667	-436.73871	532.06952	-349.8389	-354.95264	1002.0212	-565.80365	-646.36206	1126.339	-380.72324	-349.38052	906.23657	-61.05983	-445.59927	963.8689	-19.258724	-558.80444	555.47235	137.64897	-633.64246	598.78839	175.45496
448	2.23	-490.4996	145.97534	-537.74756	-532.4707	153.48405	-498.97137	-334.32565	552.27942	-390.82315	-437.21237	530.69495	-351.49957	-354.23639	1001.8818	-564.53076	-646.58484	1123.2968	-381.82227	-355.45853	896.47986	-59.006886	-453.09604	952.02771	-18.220974	-564.44769	538.10254	123.64675	-641.2287	579.33466	160.79358
449	2.235	-491.28223	144.95869	-538.3916	-533.36224	152.48233	-499.75491	-334.11191	550.99066	-391.92029	-437.05231	529.49231	-352.07944	-353.44495	1001.6632	-563.39215	-647.4129	1120.1093	-382.37149	-361.87009	886.26666	-57.151581	-460.99155	939.60968	-17.584366	-570.20966	520.89099	109.60993	-648.49463	560.034	145.68881
450	2.24	-492.08121	144.02264	-539.04956	-534.24005	151.60921	-500.38998	-333.67191	549.79602	-393.00912	-436.8497	528.41272	-352.76901	-352.7215	1001.3293	-562.33093	-648.55005	1117.3899	-382.06006	-368.51303	875.69672	-55.706268	-468.8772	926.74615	-17.465271	-575.07794	504.37076	94.843033	-655.74353	541.04901	129.98106
451	2.245	-492.93262	143.15865	-539.63928	-534.89813	150.90485	-500.61642	-333.21573	548.59558	-393.92706	-436.18298	527.1051	-353.63412	-352.1586	1000.924	-561.18372	-648.96808	1114.2162	-382.62024	-375.15576	864.87335	-54.76384	-477.04449	913.60303	-17.860689	-581.03387	487.61627	80.759964	-662.3476	522.18109	114.1312
452	2.25	-493.98538	142.23538	-539.89276	-535.9754	150.33401	-501.29205	-332.7518	547.22919	-394.69287	-435.64221	525.96521	-354.00562	-351.45792	1000.4288	-560.15039	-649.03937	1110.5751	-383.68936	-382.20071	853.66083	-54.298527	-485.44507	900.72687	-18.662317	-585.71014	471.4942	65.539742	-669.15393	504.07214	97.797951
453	2.255	-495.17459	141.1694	-539.78961	-536.90674	149.61073	-501.53809	-332.14182	546.00061	-395.31143	-435.28928	524.92218	-353.8956	-350.6998	999.8161	-559.12402	-650.13403	1107.3452	-383.28983	-389.44528	842.24384	-54.606171	-494.06131	887.24579	-20.328482	-591.06305	455.87149	50.753067	-675.64771	486.25458	81.172287
454	2.26	-496.18042	140.34874	-540.04761	-537.73743	148.98354	-501.69028	-331.53201	544.73517	-395.67017	-434.27695	523.55505	-354.21991	-349.9512	999.11664	-558.03754	-650.37836	1103.976	-383.61911	-396.91812	830.7876	-55.477745	-502.53009	874.28406	-22.554235	-596.50037	439.98575	35.642151	-681.82831	468.80313	64.473618
455	2.265	-496.90082	139.78152	-540.76129	-538.63263	148.20259	-501.99557	-330.97586	543.38171	-395.8725	-433.37994	522.64008	-353.78098	-349.18658	998.2525	-556.94623	-650.56775	1100.1675	-384.41827	-404.43106	819.31201	-57.066105	-510.66721	861.03888	-25.788662	-601.53668	424.83359	20.10413	-688.1109	452.06537	47.426731
